<svg width="56" height="24" viewBox="0 0 56 24" fill="none" xmlns="http://www.w3.org/2000/svg">
<path d="M13.0288 2.00125H17.9227C19.7249 1.97205 21.7029 2.44096 21.7029 4.62421C21.7029 5.56191 21.146 6.32375 20.3256 6.734C21.4389 7.05625 22.128 8.02354 22.128 9.2103C22.128 11.7013 20.2963 12.463 18.0545 12.463H13.0288V2.00125ZM15.7539 6.11869H17.8642C18.3329 6.11869 18.9775 5.8695 18.9775 5.12232C18.9775 4.36036 18.4353 4.11143 17.8642 4.11143H15.7539V6.11869ZM15.7539 10.2799H17.9373C18.8017 10.2799 19.4024 9.97227 19.4024 9.10777C19.4024 8.18461 18.7578 7.87688 17.9373 7.87688H15.7539V10.2799Z" fill="white"/>
<path d="M26.4495 2.00098H29.2184L33.1307 12.4627H30.2881L29.6435 10.5873H25.9951L25.3357 12.4627H22.5371L26.4495 2.00098ZM26.6251 8.56551H28.9986L27.841 4.90245H27.812L26.6251 8.56551Z" fill="white"/>
<path d="M33.8914 2.00098H36.6903L40.324 8.44805H40.3531V2.00098H42.9176V12.4627H40.1187L36.485 5.94268H36.4559V12.4627H33.8914V2.00098Z" fill="white"/>
<path d="M44.7776 2.00098H47.5029V6.01588L50.9461 2.00098H54.3309L50.4626 6.11841L54.8145 12.4628H51.43L48.6166 8.06739L47.5031 9.23961V12.463H44.7777V2.0011L44.7776 2.00098Z" fill="white"/>
<path d="M6.17549 16.259H4.02595V21.8489H2.14953V16.259H0.000244141V14.6445H6.17549V16.259Z" fill="white"/>
<path d="M7.00293 14.6445H10.6758C11.9472 14.6445 13.1982 15.2198 13.1982 16.6725C13.1982 17.4495 12.8253 18.1861 12.0684 18.4789V18.4989C12.8351 18.6808 13.0569 19.5381 13.1176 20.2244C13.1378 20.527 13.1683 21.5864 13.4204 21.8491H11.5634C11.4021 21.607 11.3719 20.9006 11.3517 20.6989C11.301 19.9723 11.1803 19.2257 10.3024 19.2257H8.87974V21.8491H7.00293V14.6445ZM8.88013 17.7723H10.4537C11.0189 17.7723 11.3216 17.4697 11.3216 16.925C11.3216 16.3904 10.8978 16.1478 10.3732 16.1478H8.88C8.88013 16.1478 8.88013 17.7723 8.88013 17.7723Z" fill="white"/>
<path d="M16.2453 14.6445H18.1523L20.8463 21.8489H18.8885L18.445 20.5572H15.9324L15.4785 21.8489H13.551L16.2453 14.6445ZM16.3664 19.1649H18.0011L17.2039 16.642H17.1837L16.3664 19.1649Z" fill="white"/>
<path d="M21.3713 14.6445H23.2984L25.801 19.0842H25.8214V14.6445H27.5872V21.8489H25.6601L23.1573 17.359H23.1371V21.8489H21.3713V14.6445Z" fill="white"/>
<path d="M30.3316 19.427C30.3722 20.2745 30.8968 20.5467 31.694 20.5467C32.2589 20.5467 32.8442 20.3452 32.8442 19.8104C32.8442 19.1747 31.8149 19.0537 30.7759 18.7607C29.7466 18.4682 28.6668 18.0043 28.6668 16.6822C28.6668 15.1082 30.2511 14.4927 31.6033 14.4927C33.036 14.4927 34.4788 15.1886 34.4891 16.8133H32.6123C32.6425 16.1575 32.0269 15.9456 31.4518 15.9456C31.0482 15.9456 30.5437 16.0867 30.5437 16.5612C30.5437 17.116 31.5829 17.2169 32.6322 17.5097C33.6718 17.8022 34.721 18.2864 34.721 19.5881C34.721 21.4146 33.167 21.9999 31.583 21.9999C29.9282 21.9999 28.4654 21.2732 28.4548 19.4269H30.3316V19.427Z" fill="white"/>
<path d="M35.5986 14.6445H40.9063V16.1479H37.4757V17.6211H40.4421V19.0738H37.4757V21.8489H35.5986V14.6445Z" fill="white"/>
<path d="M41.7642 14.6445H47.5055V16.1479H43.6408V17.4093H47.1724V18.8622H43.6408V20.2346H47.6065V21.8488H41.7643L41.7642 14.6445Z" fill="white"/>
<path d="M48.6763 14.6445H52.3491C53.6205 14.6445 54.8713 15.2198 54.8713 16.6725C54.8713 17.4495 54.4983 18.1861 53.7414 18.4789V18.4989C54.5082 18.6808 54.7303 19.5381 54.7907 20.2244C54.8111 20.527 54.8411 21.5864 55.0935 21.8491H53.2368C53.0751 21.607 53.0452 20.9006 53.0249 20.6989C52.9744 19.9723 52.8535 19.2257 51.9756 19.2257H50.5531V21.8491H48.6763V14.6445ZM50.5531 17.7723H52.1273C52.6922 17.7723 52.9946 17.4697 52.9946 16.925C52.9946 16.3904 52.5713 16.1478 52.0463 16.1478H50.5531V17.7723Z" fill="white"/>
<path d="M11.3594 2H0V4.27471H11.3594V2Z" fill="white"/>
<path d="M11.3594 10.1885H0V12.4631H11.3594V10.1885Z" fill="white"/>
<path d="M11.3594 6.09375H0V8.36846H11.3594V6.09375Z" fill="white"/>
</svg>
