<svg width="111" height="24" viewBox="0 0 111 24" fill="none" xmlns="http://www.w3.org/2000/svg">
<path d="M42.8363 15.6135V11.3692C42.8363 9.76778 41.8054 8.68966 40.1466 8.67557C39.1842 8.61394 38.2643 9.07563 37.7451 9.8809C37.2719 9.09947 36.4054 8.63698 35.4864 8.67557C34.6872 8.63738 33.9272 9.02033 33.4877 9.68284V8.83399H32V15.6135H33.502V11.8588C33.502 10.6817 34.1587 10.0592 35.1753 10.0592C36.1917 10.0592 36.6629 10.6958 36.6629 11.8446V15.6135H38.1563V11.8588C38.1563 10.6817 38.8416 10.0592 39.8296 10.0592C40.8176 10.0592 41.3314 10.6958 41.3314 11.8446V15.6135H42.8363ZM65.0601 8.83965H62.6302V6.78545H61.1281V8.83965H59.7404V10.1865H61.1281V13.2736C61.1281 14.8467 61.7421 15.7834 63.5011 15.7834C64.1579 15.7855 64.8022 15.604 65.3599 15.2599L64.9316 13.9978C64.5325 14.2334 64.0796 14.3649 63.6153 14.3799C62.8728 14.3799 62.6273 13.9271 62.6273 13.2481V10.1865H65.0573L65.0601 8.83965ZM77.7467 8.66991C77.0078 8.64857 76.3163 9.02967 75.9449 9.66309V8.83965H74.4715V15.6135H75.9592V11.8163C75.9592 10.6846 76.4446 10.0733 77.4183 10.0733C77.7369 10.0688 78.0532 10.1265 78.3492 10.2432L78.8061 8.85387C78.4661 8.73338 78.1079 8.67109 77.7467 8.66991ZM58.5668 9.37733C57.7246 8.8814 56.7562 8.63593 55.7771 8.66991C54.0468 8.66991 52.9217 9.49335 52.9217 10.8373C52.9217 11.9436 53.7497 12.6228 55.2803 12.8349L55.9799 12.9339C56.7936 13.0472 57.1819 13.2593 57.1819 13.6414C57.1819 14.1648 56.6394 14.4648 55.6229 14.4648C54.8028 14.4906 53.9979 14.2413 53.3386 13.7574L52.6619 14.9033C53.5281 15.5035 54.5663 15.8121 55.6229 15.7834C57.596 15.7834 58.741 14.8609 58.741 13.5734C58.741 12.3823 57.8386 11.7597 56.3539 11.5475L55.6543 11.4485C55.0119 11.3636 54.495 11.2362 54.495 10.7836C54.495 10.2883 54.9804 9.99125 55.797 9.99125C56.5453 10.0023 57.2784 10.2018 57.9273 10.5713L58.5668 9.37733ZM98.4056 8.66991C97.6668 8.64857 96.9754 9.02967 96.6039 9.66309V8.83965H95.1305V15.6135H96.6182V11.8163C96.6182 10.6846 97.1036 10.0733 98.0773 10.0733C98.3958 10.0688 98.7122 10.1265 99.0081 10.2432L99.4651 8.85387C99.1251 8.73338 98.7668 8.67109 98.4056 8.66991ZM79.2487 12.2266C79.2487 14.2808 80.6935 15.7834 82.895 15.7834C83.7878 15.8271 84.6646 15.5384 85.3535 14.974L84.6398 13.7828C84.1254 14.1709 83.4986 14.3843 82.8522 14.3912C81.6644 14.3912 80.7935 13.5253 80.7935 12.2237C80.7935 10.9222 81.6672 10.0705 82.8522 10.0564C83.4986 10.0633 84.1254 10.2766 84.6398 10.6647L85.3535 9.47346C84.6646 8.90918 83.7878 8.62052 82.895 8.66424C80.6935 8.66424 79.2487 10.1668 79.2487 12.221V12.2266ZM93.1774 12.2266V8.83122H91.6897V9.65453C91.1751 8.99649 90.3705 8.62632 89.531 8.66148C87.6151 8.66148 86.1045 10.1498 86.1045 12.2181C86.1045 14.2865 87.6065 15.7748 89.531 15.7748C90.3705 15.81 91.1751 15.4398 91.6897 14.7816V15.6022H93.1774V12.2266ZM87.6436 12.2266C87.6436 11.0354 88.4289 10.0592 89.7166 10.0592C90.9473 10.0592 91.7753 10.9958 91.7753 12.2266C91.7753 13.4575 90.9473 14.3941 89.7166 14.3941C88.4289 14.3941 87.6436 13.415 87.6436 12.2266ZM69.6944 8.66991C67.6957 8.66991 66.2907 10.1158 66.2907 12.2266C66.2907 14.3799 67.7499 15.7834 69.7943 15.7834C70.8153 15.8188 71.8134 15.4804 72.5984 14.8326L71.8702 13.7404C71.3024 14.1906 70.5987 14.4396 69.8714 14.4478C68.912 14.4478 68.0411 14.0092 67.8269 12.7897H72.9038C72.9182 12.6058 72.9325 12.4218 72.9325 12.2237C72.9325 10.1129 71.6018 8.66714 69.6858 8.66714L69.6944 8.66991ZM69.6659 9.98849C70.6253 9.98849 71.2393 10.5827 71.3963 11.6325H67.8527C68.0098 10.6534 68.6093 9.98849 69.6686 9.98849H69.6659ZM106.972 12.2266V6.11768H105.484V9.66019C104.97 9.00215 104.165 8.63198 103.326 8.66714C101.41 8.66714 99.8991 10.1555 99.8991 12.2237C99.8991 14.2922 101.401 15.7805 103.326 15.7805C104.165 15.8156 104.97 15.4455 105.484 14.7873V15.6078H106.972V12.2266ZM108.711 14.9883C108.77 14.988 108.828 14.9996 108.882 15.0222C108.934 15.0442 108.982 15.076 109.022 15.1156C109.062 15.1544 109.094 15.2005 109.116 15.2514C109.163 15.3579 109.163 15.4787 109.116 15.5853C109.094 15.636 109.062 15.6821 109.022 15.7211C108.982 15.7606 108.934 15.7922 108.882 15.8145C108.828 15.8374 108.77 15.8488 108.711 15.8484C108.533 15.8507 108.371 15.7469 108.3 15.5853C108.254 15.4787 108.254 15.358 108.3 15.2514C108.344 15.1475 108.428 15.0652 108.534 15.0222C108.592 14.9984 108.654 14.9868 108.717 14.9883H108.711ZM108.711 15.7522C108.756 15.753 108.801 15.7443 108.842 15.7268C108.882 15.7099 108.917 15.6859 108.948 15.656C109.08 15.5246 109.08 15.3121 108.948 15.1807C108.918 15.1506 108.882 15.1267 108.842 15.1099C108.801 15.0926 108.756 15.0839 108.711 15.0844C108.665 15.0839 108.619 15.0926 108.577 15.1099C108.404 15.1829 108.324 15.3808 108.398 15.5517C108.414 15.5906 108.438 15.626 108.468 15.656C108.499 15.6863 108.536 15.7103 108.577 15.7268C108.621 15.7451 108.669 15.7536 108.717 15.7522H108.711ZM108.737 15.2146C108.779 15.2116 108.822 15.2236 108.857 15.2486C108.885 15.2711 108.901 15.3058 108.899 15.342C108.9 15.3729 108.888 15.4028 108.865 15.424C108.839 15.4471 108.806 15.461 108.771 15.4636L108.902 15.6135H108.799L108.677 15.4636H108.637V15.6135H108.551V15.2174L108.737 15.2146ZM108.637 15.2881V15.3957H108.737C108.754 15.4008 108.773 15.4008 108.791 15.3957C108.804 15.3869 108.812 15.3719 108.811 15.3561C108.812 15.3403 108.804 15.3252 108.791 15.3164C108.773 15.3113 108.754 15.3113 108.737 15.3164L108.637 15.2881ZM101.444 12.2266C101.444 11.0354 102.229 10.0592 103.517 10.0592C104.748 10.0592 105.576 10.9958 105.576 12.2266C105.576 13.4575 104.748 14.3941 103.517 14.3941C102.229 14.3941 101.444 13.415 101.444 12.2266ZM51.2169 12.2266V8.83122H49.7292V9.65453C49.2146 9.00215 48.4142 8.63554 47.5792 8.66991C45.6632 8.66991 44.1527 10.1582 44.1527 12.2266C44.1527 14.2951 45.6546 15.7834 47.5792 15.7834C48.4186 15.8184 49.2232 15.4482 49.7378 14.7902V15.6107H51.2255L51.2169 12.2266ZM45.6832 12.2266C45.6832 11.0354 46.4684 10.0592 47.7562 10.0592C48.9869 10.0592 49.815 10.9958 49.815 12.2266C49.815 13.4575 48.9869 14.3941 47.7562 14.3941C46.4684 14.3941 45.6832 13.4179 45.6832 12.2266Z" fill="white"/>
<path d="M13.6962 5.96354C13.7956 5.8776 13.8967 5.79427 14.0004 5.71354C14.1033 5.79427 14.2053 5.8776 14.3047 5.96354C15.9969 7.43056 17.0692 9.58941 17.0692 12C17.0692 14.4097 15.9969 16.5686 14.3047 18.0356C14.2053 18.1215 14.1033 18.2049 14.0004 18.2865C13.8967 18.2049 13.7956 18.1215 13.6962 18.0356C12.0031 16.5686 10.9317 14.4097 10.9317 12C10.9317 9.58941 12.0031 7.43056 13.6962 5.96354Z" fill="white"/>
<path d="M14.5183 5.33681C15.7911 4.49219 17.3212 4 18.9654 4C23.4029 4 27 7.5816 27 12C27 16.4175 23.4029 20 18.9654 20C17.3212 20 15.7911 19.5069 14.5183 18.6623C14.5828 18.6094 14.6491 18.5564 14.7127 18.5026C16.6054 16.8628 17.6908 14.4922 17.6908 12C17.6908 9.50694 16.6054 7.13628 14.7118 5.49653C14.6491 5.44184 14.5828 5.38976 14.5183 5.33681Z" fill="white"/>
<path d="M13.4826 18.6623C13.4172 18.6094 13.3509 18.5564 13.2882 18.5026C11.3955 16.8628 10.3101 14.4931 10.3101 12C10.3101 9.50694 11.3955 7.13628 13.2882 5.49653C13.3509 5.44184 13.4172 5.38976 13.4826 5.33681C12.2089 4.49219 10.6797 4 9.0346 4C4.59709 4 1 7.5816 1 12C1 16.4175 4.59709 20 9.0346 20C10.6797 20 12.2089 19.5069 13.4826 18.6623Z" fill="white"/>
<path d="M26.7489 16.6467V16.9566H26.6914V16.7222L26.6033 16.9245H26.544L26.456 16.7231V16.9566H26.3985V16.6467H26.4795L26.5737 16.8602L26.667 16.6467H26.7489Z" fill="white"/>
<path d="M26.2328 16.6997V16.9566H26.1761V16.6997H26.0715V16.6467H26.3374V16.6997H26.2328Z" fill="white"/>
</svg>
