<svg width="89" height="24" viewBox="0 0 89 24" fill="none" xmlns="http://www.w3.org/2000/svg">
<path d="M2.93188 20.4818V5.11358C2.93188 3.72267 4.02279 2.71358 5.49552 2.71358C6.96825 2.71358 7.82734 3.28631 8.48188 4.55449L12.341 12.2318H12.3955V2.99995H16.7182V18.2181C16.7182 19.8136 15.5182 20.7681 14.4273 20.7681C13.3092 20.7681 12.491 20.2499 11.3455 18.0272L7.32279 10.2409H7.26825V20.4681H2.93188V20.4818ZM24.5728 15.6818L22.9501 13.0909L26.4273 10.7727C25.7864 10.3636 25.2819 10.309 24.791 10.309C23.0455 10.309 22.091 12.1227 22.091 13.6772C22.091 15.2999 23.2364 16.9909 24.9546 16.9909C26.5501 16.9909 28.1046 15.559 28.7455 14.0454L31.7864 15.6409C30.5728 18.6136 27.8592 20.7681 24.6546 20.7681C21.1092 20.7681 18.0001 17.659 18.0001 13.8954C18.0001 10.1181 21.0955 7.02267 24.6546 7.02267C27.6273 7.02267 29.5773 8.6454 30.9682 11.209L24.5728 15.6818ZM35.8773 13.8954C35.8773 12.3818 36.9682 11.1136 38.4546 11.1136C39.941 11.1136 41.0319 12.3818 41.0319 13.8954C41.0319 15.409 39.941 16.6772 38.4546 16.6772C36.9682 16.6772 35.8773 15.409 35.8773 13.8954ZM31.7864 13.8954C31.7864 17.6727 34.8955 20.7681 38.4546 20.7681C42.0137 20.7681 45.1228 17.659 45.1228 13.8954C45.1228 10.1181 42.0137 7.02267 38.4546 7.02267C34.8955 7.02267 31.7864 10.1181 31.7864 13.8954ZM45.9955 16.7318H50.0182C50.5092 16.7318 50.7546 16.4863 50.7546 16.1454C50.7546 14.9181 46.1319 15.3818 46.1319 11.0999C46.1319 8.65904 48.2182 7.43176 50.2092 7.43176H54.2728V10.8818H51.0001C50.5092 10.8818 50.141 11.1409 50.141 11.4954C50.141 12.5318 55.0228 12.7909 55.0228 16.2681C55.0228 18.8999 53.4001 20.3318 50.6592 20.3318H45.9819V16.7318H45.9955ZM60.4501 14.8909C60.4501 16.009 61.0092 16.7045 61.9228 16.7045C62.8364 16.7045 63.3955 16.009 63.3955 14.8909V7.4454H67.5273V14.8909C67.5273 18.259 65.5773 20.7818 61.9228 20.7818C58.2819 20.7818 56.3182 18.2727 56.3182 14.8909V7.4454H60.4501V14.8909ZM72.4364 9.59995H72.491C73.1182 7.77267 74.3182 7.4454 76.1319 7.4454V11.3181C73.241 11.4272 72.9819 12.0545 72.9819 14.2909V20.3454H68.8092V7.4454H72.4364V9.59995ZM77.0046 20.3454V6.50449C77.0046 3.83176 79.0773 1.85449 82.3501 1.85449H84.7501V5.71358H82.7319C81.641 5.71358 81.3682 6.32722 81.3682 7.40449H83.9046V11.2636H81.3682V20.3454H77.0046Z" fill="white"/>
</svg>
