<svg width="82" height="24" viewBox="0 0 82 24" fill="none" xmlns="http://www.w3.org/2000/svg">
<path d="M75.8545 6.02791C74.883 5.34461 73.4129 5 71.4851 5H66.4366L64.5601 15.4569H57.9468L58.3707 13.0848H62.3551L62.8287 10.4201L58.8469 10.4271L59.2733 8.06511H63.3762L63.9222 5.00024H55.5875L53.8063 14.9205H50.7501L52.5443 5.00024H48.1869L46.4058 14.9205H43.4258L45.2218 5.00024H40.8689L38.9875 15.4575H32.3273L32.7468 13.0851H36.7491L37.2204 10.4357L33.2243 10.4319L33.6486 8.06511H37.7973L38.3406 5.00024H12.3741L10.8962 13.2873L7.95143 5H3.43225L1 18.5235H5.31564L6.78765 10.0089L9.64535 18.5235H25.1141L26.9945 8.06463H29.415L27.5335 18.5235H68.2367L69.4156 11.9209L71.3265 18.5235H75.6447L73.6664 13.1286L74.1179 13.0283C75.1131 12.8097 75.8921 12.3385 76.4326 11.6326C76.9741 10.9203 77.249 10.0054 77.249 8.90657C77.2493 7.62665 76.7939 6.68555 75.8545 6.02791ZM21.3565 15.4567H14.7483L15.1754 13.0845H19.3203L19.7913 10.4124H15.6864L16.0832 8.06439H22.6798L21.3565 15.4567ZM72.2948 10.9018C71.8612 11.2118 71.2319 11.3651 70.3708 11.3651H69.517L70.1717 7.7354H70.7997C71.5143 7.7354 72.0365 7.85373 72.3962 8.09349C72.6772 8.28128 73.0104 8.65339 73.0104 9.35927C73.0104 10.2096 72.6229 10.6671 72.2948 10.9018Z" fill="white"/>
<path d="M80.6355 17.4689C80.5586 17.3592 80.4783 17.2682 80.3943 17.1971C80.3554 17.1647 80.2979 17.1331 80.224 17.1005C80.4211 17.0619 80.5644 16.988 80.6542 16.8802C80.744 16.7714 80.7859 16.6422 80.7775 16.491C80.773 16.3738 80.7383 16.2697 80.676 16.176C80.6134 16.0821 80.534 16.0187 80.4354 15.9859C80.337 15.9523 80.1963 15.9405 80.0127 15.9499L79.093 15.9975L79.199 18.1248L79.474 18.1105L79.4284 17.165L79.7449 17.1486C79.8156 17.1447 79.8663 17.1454 79.8984 17.1504C79.9401 17.1597 79.9845 17.1756 80.0257 17.2011C80.0678 17.2261 80.1172 17.2703 80.1719 17.3356C80.2271 17.4004 80.2979 17.4948 80.3844 17.6187L80.6803 18.0467L81.0222 18.029L80.6355 17.4689ZM80.0045 16.8926L79.4165 16.9238L79.38 16.219L80.0344 16.1849C80.1879 16.1774 80.3023 16.2029 80.3766 16.2638C80.4504 16.3259 80.4902 16.4061 80.4953 16.5075C80.4997 16.5763 80.4836 16.64 80.4505 16.701C80.4169 16.762 80.365 16.8074 80.2962 16.8371C80.2274 16.8673 80.1291 16.8867 80.0045 16.8926Z" fill="white"/>
<path d="M79.8018 15.0256C79.2863 15.0538 78.8098 15.2852 78.4638 15.6793C78.1172 16.0733 77.9402 16.5831 77.9667 17.1136C78.0226 18.208 78.9343 19.0521 80.0009 18.9973C81.0662 18.9405 81.8905 18.0042 81.8354 16.9104C81.7814 15.8158 80.8698 14.9697 79.8018 15.0256ZM79.9833 18.6598C79.0977 18.7057 78.3418 18.0042 78.2957 17.0954C78.2745 16.6551 78.4201 16.2334 78.7078 15.907C78.9954 15.5799 79.3908 15.3868 79.8203 15.3647C80.7044 15.3175 81.461 16.0185 81.5065 16.9269C81.508 16.9549 81.5098 16.9848 81.5098 17.0117C81.5098 17.8832 80.8405 18.6139 79.9833 18.6598Z" fill="white"/>
</svg>
